<?xml version="1.0" encoding="utf-8"?>
<!-- Generator: Adobe Illustrator 22.0.1, SVG Export Plug-In . SVG Version: 6.00 Build 0)  -->
<svg version="1.1" id="레이어_1" xmlns="http://www.w3.org/2000/svg" xmlns:xlink="http://www.w3.org/1999/xlink" x="0px"
	 y="0px" viewBox="0 0 743.4 180" style="enable-background:new 0 0 743.4 180;" xml:space="preserve">
<style type="text/css">
	.st0{fill:#FFFFFF;}
</style>
<g>
	<path class="st0" d="M328.7,79.5c-1.9-2.1-4.4-3.7-7.6-4.7c-3.2-1-7-1.6-11.3-1.6H308c-8.8,0-15.1,1.9-18.9,5.8
		c-3.8,3.9-5.7,10-5.7,18.3v15c0.1,7.9,2.1,13.8,5.9,17.5c3.8,3.7,10,5.6,18.7,5.6h24.6v-14.4h-17.4c-3.2,0-5.9-0.1-8-0.3
		c-2.1-0.2-3.8-0.6-5.1-1.3c-1.3-0.7-2.3-1.6-2.9-2.8c-0.6-1.2-1-3-1.2-5.2h36.1V98.6c0-4.3-0.4-8.1-1.3-11.3
		C332.1,84.2,330.7,81.5,328.7,79.5 M298.1,98.6c0.1-2,0.3-3.7,0.6-5.1c0.4-1.4,1-2.5,1.9-3.3c0.7-0.9,1.7-1.5,3.1-1.9
		c1.3-0.4,3.1-0.6,5.2-0.6c1.9,0,3.5,0.2,4.8,0.6c1.3,0.4,2.4,1,3.3,1.9c0.8,0.9,1.4,2,1.8,3.3c0.4,1.4,0.7,3.1,0.8,5.1H298.1z"/>
	<path class="st0" d="M399.8,86.8c1.7-2.9,3.3-5.4,4.7-7.6c1.4-2.2,2.4-3.8,3.1-4.8h-17.2c-0.5,0.9-1.2,2-2.1,3.5
		c-0.9,1.5-1.8,3-2.8,4.6c-1.2,1.9-2.3,3.8-3.5,5.7c-1.2,1.9-2.3,3.7-3.3,5.2c-1.2-1.6-2.4-3.3-3.6-5.2c-1.2-1.9-2.4-3.8-3.5-5.7
		c-1.1-1.6-2-3.1-2.9-4.6c-0.8-1.5-1.5-2.6-2-3.5h-17.3c0.7,1,1.7,2.6,3,4.8c1.4,2.2,3,4.7,4.9,7.6c1.9,2.9,4,5.9,6.1,9.2
		c2.1,3.2,4.3,6.3,6.4,9.3c-2.3,3.2-4.6,6.4-6.8,9.7c-2.2,3.3-4.3,6.4-6.3,9.2c-1.9,2.8-3.5,5.3-4.8,7.3c-1.3,2.1-2.2,3.5-2.6,4.1
		h17.3c0.4-0.6,1.1-1.7,1.9-3.1c0.8-1.4,1.8-2.9,2.9-4.6c1.1-1.7,2.2-3.5,3.5-5.3c1.2-1.8,2.5-3.7,3.8-5.6c1.2,1.9,2.3,3.7,3.5,5.6
		c1.2,1.8,2.4,3.6,3.5,5.3c1.1,1.7,2,3.2,2.8,4.6c0.8,1.4,1.4,2.4,1.9,3.1h17.1c-0.5-0.6-1.4-2-2.6-4.1c-1.3-2.1-2.8-4.5-4.5-7.3
		c-1.9-2.8-4-5.9-6.2-9.2c-2.2-3.3-4.4-6.6-6.7-9.7c2.1-3,4.2-6,6.3-9.3C395.8,92.7,397.8,89.6,399.8,86.8"/>
	<path class="st0" d="M448.5,74.1h-25.1v77H438v-17.6h11.5v-0.1c8.4,0,14.5-1.8,18.6-5.3c4-3.5,6.1-9.1,6.1-16.6v-3.2V104v-4.2v-3.6
		c-0.2-7.6-2.4-13.2-6.7-16.8C463.1,75.9,456.8,74.1,448.5,74.1 M459,111.7c-0.3,2.2-1,3.8-2.1,4.8c-1.2,1.2-3,1.9-5.3,2.3
		c-2.3,0.4-5.5,0.5-9.5,0.5H438V88.5h4.1c4,0,7.2,0.2,9.5,0.6c2.3,0.4,4.1,1.1,5.3,2.2c1.2,1.1,1.9,2.5,2.1,4.4
		c0.3,1.8,0.4,4.2,0.4,7.2C459.4,106.5,459.3,109.5,459,111.7"/>
	<path class="st0" d="M538.1,80.6c-2.7-2.5-5.6-4.3-8.9-5.3c-3.3-1-6.5-1.6-9.7-1.6c-3,0-6.1,0.5-9.3,1.5c-3.2,1-6.1,2.7-8.9,5.2
		c-2.7,2.5-5,5.9-6.7,10c-1.7,4.2-2.6,9.4-2.6,15.7c0,6.4,0.9,11.7,2.6,15.9c1.8,4.2,4,7.6,6.8,10.2c2.7,2.4,5.7,4,8.9,5
		c3.2,0.9,6.2,1.4,9.2,1.4c3.2,0,6.4-0.4,9.7-1.2c3.3-0.8,6.2-2.4,8.8-4.8c2.7-2.5,4.9-5.9,6.6-10.1c1.8-4.2,2.6-9.6,2.6-16.3
		c0-6.1-0.9-11.3-2.6-15.5C542.9,86.4,540.7,83.1,538.1,80.6 M531.9,112.4c-0.4,2.1-1.2,3.9-2.3,5.5c-1,1.8-2.3,3.3-4,4.4
		c-1.7,1.1-3.7,1.7-6.2,1.7c-2.3,0-4.2-0.5-5.8-1.5c-1.6-1-2.9-2.3-4-4c-1.1-1.7-1.9-3.5-2.3-5.7c-0.5-2.1-0.7-4.3-0.7-6.6
		c0-2.5,0.2-4.9,0.6-7.1c0.4-2.2,1.2-4.1,2.3-5.6c1-1.5,2.3-2.7,3.9-3.6c1.6-0.9,3.6-1.3,6-1.3c2.5,0,4.5,0.5,6.2,1.3
		c1.7,0.9,3,2.1,4,3.7c1.1,1.7,1.8,3.6,2.3,5.7c0.4,2.2,0.6,4.4,0.6,6.8C532.5,108.2,532.3,110.3,531.9,112.4"/>
	<path class="st0" d="M614.4,116.1c-0.6-2.4-6.4-38.3-7.2-41.9h-15.3c-0.9,3.6-7.5,40.1-8.3,42.7l-7.5-42.7h-13.5
		c0.3,1.2,0.7,3.4,1.2,6.5c0.5,3.1,1.1,6.7,1.7,10.7c0.5,4,1.1,8.3,1.8,12.9c0.7,4.5,1.4,8.9,2.1,13c0.5,4.3,1,8,1.6,11.2
		s1,5.6,1.2,7.1h18.6c0.4-1.1,7.5-38.7,8.3-41.2c0.8,2.4,6.9,40.1,7.2,41.2h18.6c0.3-1.5,0.6-3.9,1.1-7c0.4-3.2,1-6.9,1.7-11.1
		c0.6-4.1,1.2-8.4,1.9-13c0.7-4.5,1.3-8.8,1.9-12.9c0.6-4,1.2-7.6,1.8-10.7c0.5-3.1,1-5.3,1.2-6.5h-13.7L614.4,116.1z"/>
	<path class="st0" d="M695.5,79.5c-1.9-2.1-4.4-3.7-7.6-4.7c-3.2-1-7-1.6-11.3-1.6h-1.7c-8.8,0-15.1,1.9-18.9,5.8
		c-3.8,3.9-5.7,10-5.7,18.3v15c0.1,7.9,2.1,13.8,5.9,17.5c3.8,3.7,10,5.6,18.7,5.6h24.6v-14.4h-17.4c-3.2,0-5.9-0.1-8-0.3
		c-2.1-0.2-3.8-0.6-5.1-1.3c-1.3-0.7-2.3-1.6-2.9-2.8c-0.6-1.2-1-3-1.2-5.2h36.1V98.6c0-4.3-0.4-8.1-1.3-11.3
		C698.9,84.2,697.5,81.5,695.5,79.5 M664.9,98.6c0.1-2,0.3-3.7,0.7-5.1c0.4-1.4,1-2.5,1.9-3.3c0.7-0.9,1.7-1.5,3.1-1.9
		c1.3-0.4,3.1-0.6,5.2-0.6c1.9,0,3.5,0.2,4.8,0.6c1.3,0.4,2.4,1,3.3,1.9c0.8,0.9,1.4,2,1.8,3.3c0.4,1.4,0.7,3.1,0.8,5.1H664.9z"/>
	<rect x="718.9" y="52.1" class="st0" width="14.6" height="83.4"/>
</g>
<g>
	<path class="st0" d="M237.1,104.3c-2.1-15.3-10-28.9-21.3-38.3c-10.5-8.8-24.1-14.1-38.8-14.1c-33.4,0-60.6,27.2-60.7,60.6
		c0,0.1,0,0.1,0,0.2v0.1c0,3.1-0.3,6.2-0.9,9.1c-0.5,2.4-1.2,4.7-2.1,7c-1.7,4.2-4,8.2-6.8,11.7c-8.1,10-20.5,16.4-34.3,16.4
		c-14.2,0-26.8-6.7-34.8-17.1c-5.8-7.5-9.3-16.9-9.3-27c0-16.6,9.2-31.6,23.6-39.1c-0.1-1.5-0.1-3-0.1-4.5c0-4.8,0.5-9.5,1.3-14
		c-3.2,1.1-6.2,2.4-9.1,3.9C24,69.4,11.4,89.9,11.4,112.7c0,14.8,5.3,28.3,14.1,38.8c11.1,13.4,27.9,21.9,46.6,21.9
		c22.5,0,42.2-12.3,52.7-30.6c0.1-0.2,0.3-0.5,0.4-0.7c4.8-8.7,7.6-18.7,7.6-29.3v-0.2c0-24.3,19.8-44.1,44.1-44.1
		c10.2,0,19.6,3.5,27,9.3c6.2,4.8,11.1,11.3,14,18.8c1,2.5,1.8,5.1,2.3,7.8h-59.8v16.6h59.8h16.8c0.4-2.7,0.6-5.5,0.6-8.3
		C237.6,109.8,237.4,107,237.1,104.3"/>
	<path class="st0" d="M176.9,156.7c-14.8,0-28.5-7.3-36.7-19.6c-2.1,5.8-4.9,11.3-8.3,16.3c11.4,12.6,27.7,19.9,45,19.9
		c27.9,0,51.4-18.9,58.5-44.6H218C211.5,145.1,195.6,156.7,176.9,156.7"/>
	<path class="st0" d="M103,125.9c2.3-5,3.2-11.2,3.5-16.5c-0.2-0.1-0.4-0.2-0.6-0.2c-15.2-7-25.7-22.3-25.7-40.1
		c0-24.3,19.8-44.1,44.1-44.1c14.5,0,27.8,6.9,36,18.7c5.3-1.2,10.7-1.9,16.4-1.9c0.6,0,1.2,0,1.7,0l0,0c-0.8-1.7-1.8-3.3-2.7-4.9
		C164.7,19,145.5,8.4,124.5,8.4C91,8.4,63.7,35.6,63.7,69.1C63.7,95,80.1,117.2,103,125.9"/>
</g>
</svg>
